<?xml version="1.0" encoding="UTF-8" standalone="no"?>
<svg
   xmlns:dc="http://purl.org/dc/elements/1.1/"
   xmlns:cc="http://creativecommons.org/ns#"
   xmlns:rdf="http://www.w3.org/1999/02/22-rdf-syntax-ns#"
   xmlns:svg="http://www.w3.org/2000/svg"
   xmlns="http://www.w3.org/2000/svg"
   xmlns:sodipodi="http://sodipodi.sourceforge.net/DTD/sodipodi-0.dtd"
   xmlns:inkscape="http://www.inkscape.org/namespaces/inkscape"
   height="4096"
   viewBox="0 -0.237 512.4948 514.73495"
   width="4096"
   version="1.1"
   id="svg4"
   sodipodi:docname="gigabyte-logo.svg"
   inkscape:export-filename="G:\Users\suitedoalex\sites\gigabyte-logo-0.png"
   inkscape:export-xdpi="96"
   inkscape:export-ydpi="96"
   inkscape:version="0.92.2 (5c3e80d, 2017-08-06)">
  <metadata
     id="metadata10">
    <rdf:RDF>
      <cc:Work
         rdf:about="">
        <dc:format>image/svg+xml</dc:format>
        <dc:type
           rdf:resource="http://purl.org/dc/dcmitype/StillImage" />
        <dc:title></dc:title>
      </cc:Work>
    </rdf:RDF>
  </metadata>
  <defs
     id="defs8" />
  <sodipodi:namedview
     pagecolor="#ffffff"
     bordercolor="#666666"
     borderopacity="1"
     objecttolerance="10"
     gridtolerance="10"
     guidetolerance="10"
     inkscape:pageopacity="0"
     inkscape:pageshadow="2"
     inkscape:window-width="1600"
     inkscape:window-height="837"
     id="namedview6"
     showgrid="false"
     inkscape:zoom="0.11313708"
     inkscape:cx="788.65937"
     inkscape:cy="2617.5888"
     inkscape:window-x="-8"
     inkscape:window-y="-8"
     inkscape:window-maximized="1"
     inkscape:current-layer="svg4" />
  <path
     inkscape:connector-curvature="0"
     style="fill:#005daa;stroke-width:1.53496242"
     d="m 93.408315,226.35061 h 16.284145 v 60.79024 H 93.408315 Z m 112.510575,0.0496 h 19.97432 l 23.56518,61.0862 h -17.86887 l -4.55991,-13.0325 h -22.95226 l -4.82544,13.0325 h -16.55727 z m 9.98398,12.60136 h -0.17021 l -7.89086,23.8957 h 15.33179 z m -159.500917,0.76662 c -10.84108,0.90083 -16.760055,8.00976 -16.760055,17.20997 0,8.94562 8.297898,16.46446 16.311631,16.46446 l 1.760027,-0.0124 h 2.962532 c 0,0 1.964291,0 1.978083,-1.9131 v -19.19974 h 16.733965 c 0,10.8371 -0.03727,35.17477 -0.03727,35.17477 0,0 -16.515902,-0.0121 -26.105396,-0.0121 -18.033133,0 -30.898397,-14.88111 -30.898397,-30.49408 0,-16.88778 13.99409,-30.99258 31.419135,-30.36822 l 25.031739,0.0746 -0.01209,13.07848 H 56.404903 m 96.836227,0.002 c -10.84579,0.89958 -16.75396,8.00826 -16.75396,17.20996 0,8.94563 8.28547,16.46447 16.30542,16.46447 l 1.75393,-0.0124 h 2.97024 c 0,0 1.95038,0 1.96417,-1.9131 v -19.19975 h 16.70624 c 0,10.83711 -0.0248,35.17466 -0.0248,35.17466 0,0 -16.50211,-0.0121 -26.08551,-0.0121 -18.02395,0 -30.8754,-14.88112 -30.8754,-30.49408 0,-16.88778 13.98029,-30.99257 31.41304,-30.36672 l 24.99036,0.0746 -0.006,13.07861 z"
     id="path2-7"
     sodipodi:nodetypes="ccccccccccccccccccccscccccccsscccccscccccccsscccc"
     inkscape:export-filename="G:\Users\suitedoalex\sites\gigabyte-logo-4.png"
     inkscape:export-xdpi="10.315591"
     inkscape:export-ydpi="10.315591" />
  <path
     inkscape:connector-curvature="0"
     style="fill:#005daa;stroke-width:1.52592075"
     d="m 93.408315,227.4029 h 16.284145 v 60.07616 H 93.408315 Z"
     id="path2-6-8"
     sodipodi:nodetypes="ccccc"
     inkscape:export-filename="G:\Users\suitedoalex\sites\gigabyte-logo-4.png"
     inkscape:export-xdpi="10.315591"
     inkscape:export-ydpi="10.315591" />
  <path
     inkscape:connector-curvature="0"
     style="fill:#005daa;stroke-width:1.53496242"
     d="m 256.3899,226.46753 h 28.13095 c 11.38331,0 19.88696,4.98436 19.88696,15.48549 0,7.71367 -3.94076,12.00619 -10.77361,14.27365 v 0.17023 c 8.13525,1.67367 12.35087,6.04447 12.35087,13.49273 0,14.61423 -12.88055,17.6702 -23.82923,17.6702 H 256.3899 Z m 16.29163,49.55566 h 4.83164 c 5.95414,0 12.17257,-0.88468 12.17257,-7.09377 0,-6.66125 -6.39499,-7.26425 -11.996,-7.26425 h -5.00971 v 14.35802 m 0.002,-25.39157 h 4.56128 c 5.34767,0 10.86108,-1.31308 10.86108,-6.48171 0,-5.60412 -5.24777,-6.11653 -10.6783,-6.11653 h -4.74406 z m 55.36479,13.91929 -22.59764,-38.08338 h 18.74435 l 12.00842,24.50938 11.82702,-24.50938 h 18.75802 l -22.44246,38.08338 v 23.01054 h -16.29771 z"
     id="path2-7-2"
     sodipodi:nodetypes="cssccsscccssscccssscccccccccccc"
     inkscape:export-filename="G:\Users\suitedoalex\sites\gigabyte-logo-4.png"
     inkscape:export-xdpi="10.315591"
     inkscape:export-ydpi="10.315591" />
  <path
     inkscape:connector-curvature="0"
     style="fill:#005daa;stroke-width:1.52839148"
     d="M 386.31972,238.89469 H 371.3869 v -12.07825 h 46.03784 v 12.07825 h -14.93268 v 49.01565 h -16.17234 z m 38.79607,-12.07825 h 42.74132 v 11.56583 h -26.59035 v 12.59825 h 25.10566 v 11.55056 h -25.10566 v 13.84101 h 27.53889 v 11.53825 h -43.68986 z"
     id="path2-7-2-2"
     sodipodi:nodetypes="cccccccccccccccccccccc"
     inkscape:export-filename="G:\Users\suitedoalex\sites\gigabyte-logo-4.png"
     inkscape:export-xdpi="10.315591"
     inkscape:export-ydpi="10.315591" />
  <path
     inkscape:connector-curvature="0"
     style="fill:#005daa;stroke-width:1.18831468"
     d="m 475.29096,227.93718 h -2.72906 v -1.12074 h 6.70996 v 1.12074 h -2.72435 v 7.77182 h -1.2573 z m 5.24703,-1.12074 h 2.07698 l 2.75975,7.37645 2.70322,-7.37645 h 2.06979 v 8.89306 h -1.2573 v -7.6928 h -0.0248 l -2.90102,7.6928 h -1.24514 l -2.89643,-7.6928 h -0.0248 v 7.6928 h -1.26402 z"
     id="path2-7-2-3"
     sodipodi:nodetypes="ccccccccccccccccccccccccc"
     inkscape:export-filename="G:\Users\suitedoalex\sites\gigabyte-logo-4.png"
     inkscape:export-xdpi="10.315591"
     inkscape:export-ydpi="10.315591" />
</svg>
