<?xml version="1.0" encoding="UTF-8" standalone="no"?>
<!-- Generator: Adobe Illustrator 19.0.0, SVG Export Plug-In . SVG Version: 6.00 Build 0)  -->

<svg
   xmlns:dc="http://purl.org/dc/elements/1.1/"
   xmlns:cc="http://creativecommons.org/ns#"
   xmlns:rdf="http://www.w3.org/1999/02/22-rdf-syntax-ns#"
   xmlns:svg="http://www.w3.org/2000/svg"
   xmlns="http://www.w3.org/2000/svg"
   xmlns:sodipodi="http://sodipodi.sourceforge.net/DTD/sodipodi-0.dtd"
   xmlns:inkscape="http://www.inkscape.org/namespaces/inkscape"
   version="1.1"
   id="Layer_1"
   x="0px"
   y="0px"
   viewBox="0 0 4096 4096"
   xml:space="preserve"
   sodipodi:docname="msi-logo.svg"
   width="4096"
   height="4096"
   inkscape:export-filename="G:\Users\suitedoalex\sites\msi-logo-0.png"
   inkscape:export-xdpi="96"
   inkscape:export-ydpi="96"
   inkscape:version="0.92.2 (5c3e80d, 2017-08-06)"><metadata
     id="metadata27"><rdf:RDF><cc:Work
         rdf:about=""><dc:format>image/svg+xml</dc:format><dc:type
           rdf:resource="http://purl.org/dc/dcmitype/StillImage" /><dc:title></dc:title></cc:Work></rdf:RDF></metadata><defs
     id="defs25" /><sodipodi:namedview
     pagecolor="#ffffff"
     bordercolor="#666666"
     borderopacity="1"
     objecttolerance="10"
     gridtolerance="10"
     guidetolerance="10"
     inkscape:pageopacity="0"
     inkscape:pageshadow="2"
     inkscape:window-width="1600"
     inkscape:window-height="837"
     id="namedview23"
     showgrid="false"
     inkscape:zoom="0.0625"
     inkscape:cx="1646.9781"
     inkscape:cy="2509.609"
     inkscape:window-x="-8"
     inkscape:window-y="-8"
     inkscape:window-maximized="1"
     inkscape:current-layer="g20" /><style
     type="text/css"
     id="style2">
	.st0{fill-rule:evenodd;clip-rule:evenodd;}
	.st1{fill-rule:evenodd;clip-rule:evenodd;fill:#8A8A8B;}
	.st2{fill-rule:evenodd;clip-rule:evenodd;fill:#ED1C24;}
	.st3{fill-rule:evenodd;clip-rule:evenodd;fill:#FFFFFF;}
</style><g
     id="g20"
     transform="matrix(1.7446853,0,0,1.7446853,778.36088,1129.2401)"><path
       class="st0"
       d="m 1606.4755,696.66457 94.7873,-262.05909 c 0,0 -71.3692,0 -142.7385,14.49688 l -90.3268,248.67735 h 138.278 z m -16.7272,-333.42838 -17.8423,50.18153 c 71.3693,-14.49688 142.7386,-14.49688 142.7386,-14.49688 l 17.8423,-50.18154 c 0,1.11515 -71.3693,1.11515 -142.7386,14.49689 z"
       id="path4"
       inkscape:connector-curvature="0"
       style="clip-rule:evenodd;fill-rule:evenodd;stroke-width:11.15145016"
       inkscape:export-filename="G:\Users\suitedoalex\sites\msi-logo-7.png"
       inkscape:export-xdpi="161.94522"
       inkscape:export-ydpi="161.94522" /><path
       class="st0"
       d="m 1093.5088,635.33159 c 42.3755,7.80601 86.9813,12.26659 131.5871,12.26659 30.1089,0 79.1753,-3.34543 83.6359,-41.26037 2.2303,-14.49689 -14.4969,-25.64833 -40.1453,-39.03007 -30.1088,-16.72718 -52.4118,-24.53319 -78.0601,-42.37551 -25.6483,-16.72718 -36.7998,-44.60581 -27.8786,-72.48444 25.6483,-85.86616 151.6597,-100.36305 226.3745,-100.36305 51.2966,0 101.4781,4.46059 149.4293,14.49689 l -17.8422,47.95123 c -44.6058,-7.80601 -207.4171,-35.68464 -215.223,30.10892 -2.2303,14.49689 13.3817,24.53319 39.03,39.03008 30.1089,16.72718 53.527,25.64833 79.1754,42.37551 25.6483,16.72718 36.7997,44.6058 27.8785,72.48443 -25.6483,85.86617 -151.6597,100.36308 -226.3744,100.36308 -50.1815,0 -100.363,-4.46061 -149.4295,-14.49691 z"
       id="path6"
       inkscape:connector-curvature="0"
       style="clip-rule:evenodd;fill-rule:evenodd;stroke-width:11.15145016"
       inkscape:export-filename="G:\Users\suitedoalex\sites\msi-logo-7.png"
       inkscape:export-xdpi="161.94522"
       inkscape:export-ydpi="161.94522" /><path
       class="st0"
       d="m 887.207,696.66457 79.1752,-218.56844 c 31.2241,-85.86616 -117.0901,-51.29667 -151.6597,44.6058 l -63.5633,173.96264 v 0 H 613.9964 L 693.1717,478.09613 C 724.3958,392.22997 576.0815,426.79946 541.512,523.81708 L 477.94871,697.77971 H 340.78588 L 466.79726,349.85445 c 43.49064,0 66.90874,10.03631 86.98134,30.10892 6.6909,6.69086 12.2666,16.72718 14.4968,26.76348 25.6484,-15.61203 47.9513,-26.76348 63.5633,-33.45435 28.9938,-11.15145 63.5633,-22.30291 107.0539,-22.30291 43.4907,0 66.9087,10.03631 86.9814,30.10892 7.806,6.69087 12.2665,16.72718 14.4969,26.76348 25.6483,-15.61202 47.9512,-26.76348 63.5633,-33.45435 28.9937,-11.15145 63.5632,-22.3029 107.0538,-22.3029 43.4908,0 66.9088,10.03631 86.9814,30.10892 20.0725,18.95746 18.9574,54.64211 12.2666,74.71471 l -88.0965,243.10161 H 887.207 Z"
       id="path8"
       inkscape:connector-curvature="0"
       style="clip-rule:evenodd;fill-rule:evenodd;stroke-width:11.15145016"
       inkscape:export-filename="G:\Users\suitedoalex\sites\msi-logo-7.png"
       inkscape:export-xdpi="161.94522"
       inkscape:export-ydpi="161.94522" /><path
       class="st1"
       d="M -266.96818,308.59408 C -190.02317,260.64285 -96.350983,217.15219 -7.139383,202.6553 h 2.23029 2.23029 C 86.532807,217.15219 181.32013,260.64285 257.15,308.59408 l 7.80602,4.46058 v 8.92117 C 266.07116,437.95091 247.11369,561.73202 193.58673,665.4405 152.32637,746.84608 87.647947,817.10028 -0.44851295,848.32428 l -5.57572005,2.2303 -5.57573,-2.2303 C -99.696423,818.21538 -164.37483,746.84608 -205.6352,665.4405 -259.16216,561.73202 -278.11963,437.95091 -277.00448,321.97583 v -8.92117 z"
       id="path10"
       inkscape:connector-curvature="0"
       style="clip-rule:evenodd;fill:#c7c7c7;fill-opacity:1;fill-rule:evenodd;stroke-width:11.15145016"
       inkscape:export-filename="G:\Users\suitedoalex\sites\msi-logo-5.png"
       inkscape:export-xdpi="415.78848"
       inkscape:export-ydpi="415.78848" /><path
       class="st2"
       d="m -258.04702,323.09097 c 80.29045,-50.18153 171.732347,-90.32675 254.253077,-103.70849 v 0 0 0 0 c 81.40558,13.38174 173.962633,53.52696 254.253073,103.70849 1.11515,267.63481 -102.59335,458.32461 -254.253073,510.73641 v 0 0 0 0 C -156.56882,781.41558 -259.16216,590.72578 -258.04702,323.09097 Z"
       id="path12"
       inkscape:connector-curvature="0"
       style="clip-rule:evenodd;fill:#ed1c24;fill-rule:evenodd;stroke-width:11.15145016"
       inkscape:export-filename="G:\Users\suitedoalex\sites\msi-logo-5.png"
       inkscape:export-xdpi="415.78848"
       inkscape:export-ydpi="415.78848" /><path
       class="st0"
       d="m 69.805627,426.79946 c -33.45435,39.03008 -86.98131,44.6058 -123.7811,45.72095 -4.46058,0 -12.2666,1.11514 -14.49689,4.46058 -1.11514,2.23029 0,4.46058 2.23029,5.57572 41.26037,28.99377 95.90248,7.80601 123.78111,-6.69087 -32.33921,28.99377 -88.09647,34.5695 -134.93255,17.84233 -5.57573,-2.23029 -10.03631,-2.23029 -12.26661,0 -1.11514,1.11514 -2.23028,4.46058 0,7.80601 13.38175,24.53319 22.30291,43.49066 56.87241,54.6421 -39.03008,-2.23029 -63.56327,-39.03007 -69.138997,-59.10268 0,33.45435 28.993767,55.75725 40.145217,69.13899 -15.61202,1.11515 -31.22406,2.23029 -37.91493,13.38174 -4.460577,7.80602 -4.460577,17.84233 -11.151447,27.87863 -17.84232,-33.45435 -32.3392,-81.40559 -18.95747,-122.66596 10.03632,-31.22406 27.87863,-60.21783 71.369287,-79.1753 -11.15145,13.38174 -20.07261,22.30291 -28.99377,36.79979 -7.80602,13.38174 1.11515,18.95747 12.2666,1.11514 14.49688,33.45436 114.85993,13.38174 141.62342,-18.95746 l 10.0363,-4.46058 z M 6.242357,721.19778 c 1.11515,-1.1152 3.34544,-2.2303 5.57572,-2.2303 4.46059,1.1151 5.57574,6.6908 3.34545,8.9212 -3.34545,4.4605 -7.80602,7.8059 -11.15146,11.1514 -1.11514,2.2303 -2.23029,4.4606 -3.34542995,5.5757 v 0 c -1.11515,-7.806 -1.11515,-16.7271 5.57571995,-23.418 z m -46.83609,-15.6121 c 2.23029,-2.2302 6.69087,-2.2302 8.92116,0 2.23029,2.2303 3.34543,6.6909 1.11514,8.9212 -2.23028,3.3454 -5.57572,4.4606 -8.92115,6.6909 -5.57573,3.3454 -10.03631,6.6909 -12.2666,12.2666 0,-6.6909 1.11515,-12.2666 3.34544,-17.8424 2.23029,-3.3454 4.46058,-6.6908 7.80601,-10.0363 z m 111.5145,-5.5757 c 1.11515,-1.1151 3.34544,0 4.46058,0 2.23029,1.1152 2.23029,3.3455 3.34544,4.4606 1.11514,4.4606 1.11514,7.806 2.23029,12.2666 1.11515,1.1151 1.11515,3.3454 2.2303,4.4606 -3.34545,-1.1152 -6.69088,-3.3455 -10.03632,-6.6909 -2.23029,-3.3454 -5.57572,-5.5757 -5.57572,-10.0363 0,-1.1151 1.11515,-3.3454 3.34543,-4.4606 z M -75.163223,677.7071 c 2.23028,-1.11515 5.57572,0 7.80601,1.11514 2.23029,2.23029 1.11514,4.46058 1.11514,7.80602 0,2.23029 -2.23029,3.34543 -3.34543,3.34543 -4.46058,2.23029 -10.0363,4.46058 -15.61203,6.69088 -3.34544,1.11514 -5.57573,3.34541 -7.80602,6.69091 0,-4.4606 2.23029,-8.92121 4.46058,-12.26665 2.2303,-4.46057 6.69088,-10.0363 13.38175,-13.38173 z M 123.3326,644.25275 c 0,-2.23029 1.11514,-3.34544 3.34543,-4.46058 4.46058,0 6.69087,2.23029 10.0363,3.34543 2.23029,1.11515 4.46058,1.11515 6.69087,1.11515 -3.34543,2.23029 -8.92116,4.46057 -13.38174,4.46057 -2.23028,0 -5.57572,-1.11514 -6.69086,-4.46057 z M -104.157,626.41042 c 1.11515,-1.11514 3.34544,0 4.460577,0 3.34544,1.11515 5.57573,4.46059 5.57573,6.69088 0,3.34543 0,6.69087 -3.34544,8.92116 -6.690867,3.34543 -14.496877,5.57572 -20.072597,10.0363 -2.23029,1.11514 -3.34544,3.34543 -5.57574,5.57572 1.11515,-7.80601 4.46059,-16.72717 10.03631,-23.41804 1.11515,-3.34543 5.57573,-5.57572 8.92116,-7.80602 z m 82.520727,-32.3392 c 4.46059,-2.2303 10.03631,-3.34544 14.49689,-3.34544 -4.46058,1.11514 -8.92115,3.34544 -11.15144,6.69088 -1.11515,1.11514 -2.2303,3.34543 0,4.46058 2.23029,1.11514 4.46057,1.11514 6.69086,1.11514 2.23029,1.11515 1.11515,3.34543 1.11515,5.57572 -1.11515,5.57573 -4.46058,10.03631 -7.80601,15.61203 -1.11515,1.11515 -1.11515,2.23029 -1.11515,3.34544 1.11515,0 2.23029,-1.11515 3.34544,-1.11515 4.46057,-3.34543 8.92115,-5.57572 12.26659,-10.0363 1.11514,-2.23029 3.34543005,-3.34544 4.46058005,-5.57573 0,-2.23029 -3.34544005,-2.23029 -3.34544005,-4.46058 1.11515,-2.23028 4.46058,-4.46057 7.80602,-5.57572 6.69086,-3.34543 17.84232,-2.23029 22.3029,3.34544 -3.34543,-1.11515 -6.69087,-2.23029 -11.15145,-3.34544 -2.23029,0 -4.46059,1.11515 -4.46059,2.23029 0,2.23029 0,4.46058 -1.11514,6.69087 -1.11514,7.80601 -7.80601,14.49688 -15.61203,17.84232 -2.23029,1.11515 -5.57572,2.23029 -7.80601,4.46058 -1.11515,1.11515 -2.23029,3.34544 -2.23029,5.57573 2.23029,1.11514 3.34543,0 5.57572,1.11514 4.46058,0 8.92116005,1.11515 12.2666,-1.11514 3.34543,-1.11515 5.57572,-4.46058 8.92115,-6.69087 10.03632,-3.34544 22.30291,1.11514 26.76349,8.92116 -3.34544,-1.11515 -5.57573,-3.34544 -8.92116,-4.46058 -3.34543,-1.11515 -7.80601,-1.11515 -10.0363,1.11514 -3.34544,2.23029 -4.46058,4.46058 -6.69088,7.80602 -1.11515,1.11514 -1.11515,2.23029 -3.34543,2.23029 -2.23029,0 -4.46058,-2.23029 -7.80602,-1.11515 -3.34543,1.11515 -6.69087,2.23029 -11.15145,3.34543 -2.23029,1.11515 -5.57572,0 -7.80601,0 -4.46059,-1.11514 -8.92117,-2.23028 -13.38175,-2.23028 -2.23028,0 -4.46057,0 -5.57572,2.23028 -2.23029,2.23029 -1.11514,4.46058 -2.23029,6.69087 -1.11514,-5.57572 -3.34543,-12.26659 -4.46058,-17.84231 0,-7.80602 -2.23029,-15.61204 -1.11514,-22.30291 2.23029,3.34544 2.23029,6.69087 3.34543,10.03631 0,1.11514 1.11515,3.34544 3.34544,4.46058 3.34543,0 5.57572,-2.23029 6.69086,-4.46058 2.23029,-3.34544 5.57573,-7.80602 4.46058,-12.2666 0,-2.23029 -3.34543,-2.23029 -4.46058,-3.34543 -2.23028,-2.23029 -2.23028,-5.57572 -1.11514,-7.80601 3.34543,-4.46058 6.69087,-6.69087 10.0363,-7.80602 z M 150.09608,584.03491 c 0,-1.11514 2.23029,-2.23029 4.46058,-2.23029 3.34543,0 6.69087,0 8.92116,0 -2.23029,2.23029 -5.57573,4.46058 -8.92116,5.57573 -2.23029,1.11514 -4.46058,-1.11515 -4.46058,-3.34544 z m 2.23029,-37.91493 c 2.23029,-1.11514 4.46058,-2.23029 6.69087,-3.34543 -1.11515,2.23029 -2.23029,5.57572 -5.57573,6.69086 -2.23029,1.11515 -3.34543,-2.23029 -1.11514,-3.34543 z M 41.926997,507.0899 c 3.34544,12.2666 7.80602,22.30291 21.18776,26.76349 13.38174,4.46058 31.22406,1.11514 45.720953,0 11.15145,0 22.3029,-2.23029 31.22406,3.34543 4.46058,3.34544 6.69087,6.69087 7.80601,11.15145 2.2303,4.46058 4.46059,7.80601 5.57573,12.2666 1.11515,3.34543 0,7.80601 -1.11514,11.15145 -3.34544,5.57572 -5.57573,10.0363 -5.57573,15.61203 -1.11515,5.57573 -2.23029,10.03631 -2.23029,15.61203 -1.11515,5.57572 -2.23029,11.15145 -4.46058,15.61203 -2.23029,4.46058 -6.69087,7.80601 -10.03631,12.2666 -5.57572,6.69087 -7.80601,14.49688 -10.0363,22.30289 -2.23029,5.57573 -3.34543,12.2666 -4.46059,18.95747 -1.11514,5.57573 -4.46057,10.03631 -10.0363,13.38174 -8.921163,4.46058 -18.957463,5.57572 -28.993773,8.92116 -8.92116,3.34544 -14.49688,8.92121 -21.18775,13.38171 -5.57573,4.4606 -10.03631,8.9212 -17.84233,10.0363 -14.49688,2.2303 -17.84231,-8.9211 -43.49065,0 -3.34544,1.1152 -6.69087,1.1152 -10.0363,0 -5.57574,-3.3454 -6.69088,-11.1514 -13.38175,-14.4968 -6.69087,-3.3455 -14.49688,-3.3455 -22.3029,-4.4606 -3.34544,0 -6.69087,-2.23031 -7.80602,-5.57576 -2.23029,-4.46057 -2.23029,-8.92115 -4.46058,-13.38173 -4.46058,-10.03631 -21.18775,-13.38174 -25.64834,-22.30291 -4.46057,-10.0363 1.11515,-14.49688 2.2303,-22.30289 0,-10.03631 -7.80602,-15.61204 -21.187757,-15.61204 7.80602,-11.15145 10.036307,-20.0726 13.381737,-31.22406 2.23029,-4.46058 2.23029,-8.92116 6.69087,-11.15145 3.34544,-2.23029 10.03631,-3.34543 14.49689,-4.46058 5.57572,-1.11514 12.26659,-1.11514 17.84232,1.11515 13.38174,6.69087 10.03631,25.64834 3.34544,33.45435 -8.92117,10.0363 -32.33921,8.92116 -28.99377,-7.80601 4.46058,4.46058 8.92115,10.0363 15.61202,3.34543 0,-1.11514 1.11515,-2.23029 1.11515,-2.23029 -1.11515,-3.34543 -3.34544,-5.57572 -6.69087,-6.69087 -2.23029,-1.11514 -4.46058,-1.11514 -5.57572,-1.11514 -6.69087,2.23029 -11.15146,6.69087 -13.38175,11.15145 -5.57572,10.0363 5.57573,18.95746 18.95747,16.72717 12.26659,-2.23029 17.84232,-7.80602 25.64834,-13.38174 0,13.38174 -1.11515,22.3029 1.11514,36.79979 2.23029,10.0363 4.46058,20.07261 8.92116,28.99377 4.46058,7.80601 11.15145,14.49688 21.18776,18.95746 10.0363,4.46059 21.18775,4.46059 32.33921,4.46059 18.95746,0 46.83609,-7.80602 62.44811,-15.61204 24.533203,-13.38174 27.878633,-23.41805 40.145233,-43.49065 5.57573,-8.92116 10.0363,-21.18776 13.38174,-31.22407 3.34543,-10.0363 6.69087,-21.18775 6.69087,-31.22406 0,-8.92116 -2.23029,-14.49688 -5.57573,-18.95747 -11.15144,-13.38173 -33.45435,-7.80601 -54.642113,-8.92116 -1.11514,3.34544 -3.34543,6.69087 0,10.03631 5.57574,5.57573 17.84233,4.46059 25.648343,5.57573 -35.684643,14.49688 -68.023853,-1.11514 -76.945013,-30.10892 7.80602,8.92116 20.07262,28.99378 37.91494,23.41804 6.69086,-2.23029 3.34543,-6.69087 1.11514,-10.0363 0,-1.11514 -3.34543,-1.11514 -4.46058,-2.23029 -17.84232,-8.92116 -24.53319,-23.41805 -21.18776,-36.79979 z m -115.97508,-6.69086 c 2.23029,2.23029 3.34543,4.46057 6.69087,6.69086 25.64834,18.95747 47.95124,18.95747 80.29044,20.07262 -28.99376,6.69087 -65.79355,2.23029 -85.86617,-16.72718 -3.34543,-2.23029 -4.46057,-5.57573 -6.69086,-7.80601 -1.11515,-4.46058 2.23029,-4.46058 5.57572,-2.23029 z m 120.43566,-5.57573 c 25.64834,-1.11514 52.41182,8.92116 61.332983,33.45435 -3.34543,-3.34543 -17.842323,-6.69087 -23.418043,-5.57573 -1.11514,0 -3.34544,1.11515 -3.34544,2.2303 -1.11515,2.23029 1.11515,4.46058 1.11515,5.57572 -14.49689,1.11515 -24.53319,-3.34543 -31.22406,-12.2666 3.34543,1.11515 6.69087,3.34544 10.0363,4.46058 6.69087,1.11515 14.49688,-1.11514 17.84232,-5.57572 2.23029,-2.23029 1.11514,-6.69087 -2.23029,-8.92116 -8.92116,-7.80601 -17.84232,-7.80601 -30.10892,-13.38174 z m 26.76348,-46.8361 c 3.34544,-2.23029 6.69087,-5.57572 10.03632,-7.80601 -14.49689,22.3029 -50.18154,40.14522 -78.06016,44.6058 -14.49689,3.34543 -44.6058,6.69088 -57.98754,-1.11514 -1.11515,-1.11515 -3.34544,-2.23029 -1.11515,-3.34544 2.23029,-1.11514 5.57573,-1.11514 7.80602,-1.11514 5.57572,0 11.15145,0 16.72717,0 13.38175,0 28.99377005,-2.23029 42.37551,-4.46058 22.3029,-4.46058 43.49066,-13.38174 60.21783,-26.76349 z M -190.02317,367.69677 c 4.46059,-1.11514 8.92117,0 12.2666,1.11515 4.46058,2.23029 6.69087,5.57572 8.92116,8.92116 1.11514,2.23029 2.23029,3.34543 1.11514,5.57572 -1.11514,0 -2.23029,0 -3.34543,1.11514 -1.11515,1.11515 -1.11515,2.23029 -1.11515,3.34544 1.11515,6.69088 3.34544,12.2666 6.69087,17.84232 0,1.11515 1.11515,1.11515 2.23029,2.23029 1.11515,-6.69087 -1.11514,-13.38173 2.23029,-20.07261 0,-1.11515 1.11515,-2.23029 2.23029,-2.23029 2.23029,0 4.46059,2.23029 6.69088,1.11514 2.23029,-1.11514 2.23029,-3.34543 1.11514,-4.46057 -1.11514,-4.46058 -4.46058,-6.69087 -7.80602,-10.03631 5.57573,3.34544 11.15146,7.80602 14.49689,13.38174 1.11515,3.34543 1.11515,7.80602 -2.23029,10.03631 -1.11514,1.11515 -3.34543,1.11515 -5.57572,1.11515 -4.46059,4.46057 -3.34544,10.0363 -2.23029,14.49688 0,1.11514 1.11514,3.34543 3.34543,3.34543 4.46058,-1.11514 7.80602,-4.46058 11.15145,-5.57572 -8.92116,11.15145 -15.61203,16.72718 -22.3029,30.10892 0,-2.23029 1.11514,-5.57573 0,-7.80602 0,-1.11514 -2.23029,-2.23029 -3.34544,-3.34543 -4.46058,-2.23029 -8.92116,-3.34544 -13.38173,-5.57573 -4.46058,-2.23029 -6.69087,-6.69087 -10.03631,-10.03631 -2.2303,-2.23029 -5.57573,-1.11514 -7.80602,-3.34543 -1.11514,-2.23029 0,-4.46058 -1.11514,-6.69087 -1.11515,-3.34543 -1.11515,-7.80601 -4.46058,-10.0363 -3.34544,-2.23029 -8.92116,-2.23029 -13.38174,-2.23029 v 0 c 3.34543,-1.11516 6.69087,-2.2303 11.15145,-2.2303 6.69087,1.11514 11.15145,4.46059 14.49688,7.80602 2.2303,2.23029 2.2303,6.69087 4.46059,8.92116 1.11514,2.23029 4.46058,3.34543 6.69087,4.46058 2.23029,1.11514 5.57572,3.34543 7.80601,3.34543 1.11514,-3.34543 0,-6.69087 -2.23029,-8.92116 -4.46058,-4.46057 -5.57572,-10.0363 -6.69087,-15.61203 -1.11514,-3.34544 0,-7.80601 2.23029,-11.15145 1.11515,-2.23029 2.23029,-3.34543 1.11515,-5.57572 -4.46058,-2.23029 -8.92116,-2.23029 -13.38175,-3.34544 z m 161.696027,-62.44812 c 11.15146,7.80601 26.76349,16.72718 40.14522,23.41805 -3.34543,2.23029 -5.57572,5.57572 -10.0363,5.57572 -8.92116,-3.34543 -26.76348,-21.18776 -30.10892,-28.99377 z m 16.72718,-25.64834 v 0 c 17.84232,21.18776 35.68465,37.91493 61.33298,50.18153 6.69087,3.34544 13.38174,5.57573 22.3029,6.69087 4.46058,0 8.92116,-2.23029 13.38175,-2.23029 5.57572,0 11.15144,2.23029 14.49688,4.46058 1.115143,1.11515 2.230293,2.23029 2.230293,3.34543 1.11514,5.57573 2.23029,11.15145 7.80601,14.4969 3.34543,2.23028 7.80602,2.23028 11.15146,1.11514 1.11514,3.34543 2.23029,5.57572 6.69087,6.69087 3.34543,1.11514 6.69086,-3.34544 10.0363,-2.23029 1.11514,2.23029 2.23029,4.46058 4.46058,5.57572 1.11514,1.11515 4.46058,2.23029 5.57572,3.34544 6.69088,3.34543 11.15146,10.0363 13.38175,15.61202 -3.34544,-4.46057 -7.80602,-8.92115 -14.49689,-11.15144 0,8.92115 0,21.18776 -6.69087,25.64833 0,-5.57572 0,-11.15144 -3.34544,-16.72718 -5.57572,3.34544 -10.0363,8.92117 -16.72717,10.03632 2.23029,-3.34544 7.80602,-6.69088 5.57573,-11.15146 -3.34544,-2.23029 -6.69087,-2.23029 -11.15146,-1.11514 -5.57572,1.11514 -11.15145,4.46057 -15.612033,7.80602 -1.11514,-3.34545 -2.23029,-5.57574 -3.34543,-8.92117 -3.34544,0 -14.49689,4.46058 -11.15145,10.03631 4.46058,6.69087 13.38174,3.34544 17.842323,4.46058 3.34543,1.11515 5.57572,3.34544 6.69087,6.69087 0,-2.23029 0,-4.46058 1.11514,-6.69087 5.57572,5.57572 10.03631,12.26659 13.38175,18.95746 5.57572,-2.23029 6.69086,-5.57572 7.80601,-12.26659 2.23029,3.34543 2.23029,6.69087 2.23029,11.15145 1.11514,-1.11515 2.23029,-2.23029 3.34543,-4.46058 2.23029,10.0363 0,25.64834 -14.49688,30.10892 2.23029,-6.69087 3.34544,-12.2666 -5.57572,-12.2666 -6.69088,0 -15.61204,2.23029 -22.302913,3.34544 2.23029,-1.11515 14.496893,-7.80602 12.266603,-12.2666 -1.11515,-1.11515 -2.23029,-2.23029 -4.46058,-2.23029 -4.460583,-1.11515 -8.921163,-3.34544 -13.381743,-4.46058 -2.23029,0 -4.46058,1.11514 -6.69087,2.23029 -12.2666,-5.57573 -15.61203,1.11514 -24.53319,2.23029 -7.80602,1.11514 -16.72718,-3.34544 -21.18776,-10.03631 -8.92116,-14.49688 4.46058,-23.41804 16.72718,-26.76348 -15.61204,-2.23029 -22.30291,3.34544 -25.64834,18.95747 -7.80601,-2.23029 -11.15145,-2.23029 -20.07261,-4.46058 -52.41182,-7.80602 -93.67218,7.80601 -117.090227,33.45435 -23.41805,24.53319 -37.91493,62.44812 -36.79979,93.67218 -1.11514,33.45435 10.03631,53.52697 26.76349,82.52074 -25.64834,-21.18776 -36.7998,-46.8361 -43.49067,-64.67841 -3.34543,3.34543 -2.23029,7.80601 -3.34543,12.26659 -14.49688,-20.07261 5.57572,-70.25414 15.61203,-92.55703 -7.80602,3.34543 -12.2666,10.0363 -17.84232,15.61202 -1.11515,-28.99377 24.53319,-56.8724 50.18153,-80.29044 -7.80602,1.11515 -13.38175,4.46058 -21.18776,7.80601 24.53319,-25.64833 70.254137,-41.26036 110.399357,-42.37551 -10.0363,-3.34543 -21.18775,-3.34543 -31.22406,-5.57573 31.22406,-6.69087 53.52696,-6.69087 74.71472,-21.18775 10.03631,6.69087 21.18775,13.38174 27.87862,11.15145 -15.61202,-12.26659 -47.95123,-41.26037 -53.52696,-63.56327 z m 93.67219,68.02385 c 2.23029,2.23029 4.46058,4.46058 6.69087,7.80602 2.23029,2.23029 6.69087,4.46058 11.15145,3.34543 -1.11515,-2.23028 -1.11515,-4.46058 -3.34544,-6.69087 -1.11514,-1.11515 -2.23029,-1.11515 -3.34543,-1.11515 -3.34544,-1.11514 -6.69087,-2.23029 -11.15145,-3.34543 z"
       id="path14"
       inkscape:connector-curvature="0"
       style="clip-rule:evenodd;fill-rule:evenodd;stroke-width:11.15145016"
       inkscape:export-filename="G:\Users\suitedoalex\sites\msi-logo-5.png"
       inkscape:export-xdpi="415.78848"
       inkscape:export-ydpi="415.78848" /><path
       class="st3"
       d="m 68.690487,422.33888 c -33.45436,39.03008 -86.98131,44.6058 -123.78111,45.72095 -4.46058,0 -12.26659,1.11514 -14.49688,4.46058 -1.11515,2.23029 0,4.46058 2.23029,5.57572 41.26036,28.99377 95.90247,7.80602 123.7811,-6.69087 -32.3392,28.99378 -88.09646,34.5695 -134.93255,17.84232 -5.57572,-2.23029 -10.03631,-2.23029 -12.2666,0 -1.11514,1.11514 -2.23029,4.46059 0,7.80602 13.38175,24.53319 22.3029,43.49066 56.8724,54.6421 -39.03008,-2.23029 -63.56327,-39.03007 -69.138987,-59.10268 0,33.45435 28.993767,55.75725 40.145217,69.139 -15.61203,1.11514 -31.22406,2.23028 -37.914927,13.38173 -4.46058,7.80602 -4.46058,17.84233 -11.15145,27.87863 -17.84233,-33.45435 -32.33921,-81.40559 -18.95747,-122.66596 10.03631,-31.22406 27.87863,-60.21783 71.369277,-79.1753 -11.15145,13.38174 -20.0726,22.30291 -28.99377,36.79979 -7.80601,13.38174 1.11515,18.95746 12.2666,1.11515 14.49688,33.45435 114.85994,13.38173 141.62342,-18.95747 l 10.0363,-4.46058 z m -63.56327,294.3983 c 1.11514,-1.1152 3.34543,-2.2303 5.57572,-2.2303 4.46059,1.1151 5.57573,6.6909 3.34544,8.9212 -3.34544,4.4606 -7.80602,7.806 -11.15145,11.1514 -1.11515,2.2303 -2.23028995,4.4606 -3.34543995,5.5758 v 0 C -1.563653,732.34918 -1.563653,723.42808 5.127217,716.73718 Z m -47.95124,-15.612 c 2.23029,-2.2303 6.69087,-2.2303 8.92116,0 2.23029,2.2303 3.34543,6.6908 1.11515,8.9211 -2.23029,3.3455 -5.57573,4.4606 -8.92116,6.6909 -5.57573,3.3454 -10.03631,6.6909 -12.2666,12.2666 0,-6.6909 1.11515,-12.2666 3.34544,-17.8423 2.23029,-3.3455 4.46058,-6.6909 7.80601,-10.0363 z m 112.62965,-5.57576 c 1.11514,-1.11515 3.34543,0 4.46058,0 2.23029,1.11515 2.23029,3.34546 3.34543,4.46056 1.11515,4.4606 1.11515,7.806 2.23029,12.2666 1.11515,1.1152 1.11515,3.3454 2.2303,4.4606 -3.34544,-1.1152 -6.69088,-3.3454 -10.03631,-6.6909 -2.23029,-3.3454 -5.57572,-5.5757 -5.57572,-10.0363 0,-1.1151 1.11514,-3.34541 3.34543,-4.46056 z m -147.19914,-22.3029 c 2.23029,-1.11515 5.57572,0 7.80601,1.11514 2.23029,2.23029 1.11514,4.46058 1.11514,7.80602 0,2.23029 -2.23029,3.34543 -3.34543,3.34543 -4.46058,2.23029 -10.0363,4.46058 -15.61203,6.69087 -3.34544,1.11514 -5.57573,3.34544 -7.80602,6.6909 1.11515,-4.46061 2.23029,-8.92119 4.46058,-12.26662 3.34544,-4.46058 7.80602,-10.03631 13.38175,-13.38174 z M 122.21745,639.79217 c 0,-2.23029 1.11515,-3.34544 3.34544,-4.46058 4.46057,0 6.69086,2.23029 10.0363,3.34543 2.23029,1.11515 4.46058,1.11515 6.69087,1.11515 -3.34544,2.23029 -8.92116,4.46058 -13.38174,4.46058 -3.34543,0 -6.69087,-1.11515 -6.69087,-4.46058 z m -228.60474,-17.84233 c 1.11515,-1.11514 3.34544,0 4.46058,0 3.345437,1.11515 5.575727,4.46058 5.575727,6.69088 0,3.34543 0,6.69087 -3.34544,8.92116 -6.690867,3.34543 -14.496877,5.57572 -20.072597,10.0363 -2.2303,1.11514 -3.34545,3.34543 -5.57574,5.57572 1.11515,-7.80601 4.46059,-16.72717 10.03631,-23.41804 2.23029,-3.34544 5.57573,-5.57573 8.92116,-7.80602 z m 82.520727,-32.33921 c 4.46059,-2.23028 10.03631,-3.34543 14.49689,-3.34543 -4.46058,1.11515 -8.92115,3.34543 -11.15145,6.69088 -1.11515,1.11514 -2.23029,3.34543 0,4.46058 2.2303,1.11514 4.46059,1.11514 6.69087,1.11514 2.23029,1.11515 1.11515,3.34544 1.11515,5.57573 -1.11515,5.57572 -4.46058,10.0363 -7.80602,15.61202 -1.11515,1.11515 -1.11515,2.23029 -1.11515,3.34544 1.11515,0 2.2303,-1.11515 3.34545,-1.11515 4.46057,-3.34543 8.92115,-5.57572 12.26659,-10.0363 1.11514,-2.23029 3.34543,-3.34544 4.46058,-5.57573 0,-2.23028 -3.34544,-2.23028 -3.34544,-4.46057 1.11515,-2.23029 4.46058005,-4.46058 7.80602,-5.57573 6.69087,-3.34543 17.84232,-2.23029 22.3029,3.34544 -3.34543,-1.11515 -6.69087,-2.23029 -11.15145,-3.34544 -2.2303,0 -4.46058,1.11515 -4.46058,2.23029 0,2.23029 0,4.46058 -1.11515,6.69087 -1.11514,7.80601 -7.80600995,14.49688 -15.61203,17.84232 -2.23029,1.11514 -5.57572,2.23029 -7.80601,4.46058 -1.11514,1.11515 -2.23029,3.34544 -2.23029,5.57573 2.23029,1.11514 3.34543,0 5.57572,1.11514 4.46058,0 8.92116,1.11515 12.26660005,-1.11514 3.34542995,-1.11515 5.57571995,-4.46058 8.92115995,-6.69088 10.03631,-3.34543 22.3029,1.11515 26.76348,8.92117 -3.34544,-1.11515 -5.57573,-3.34544 -8.92116,-4.46058 -3.34543,-1.11515 -7.80601,-1.11515 -10.0363,1.11514 -3.34544,2.23029 -4.46059,4.46058 -6.69088,7.80602 -1.11514,1.11514 -1.11514,2.23029 -3.34543,2.23029 -2.23029,0 -4.46058,-2.23029 -7.80601995,-1.11515 -3.34543005,1.11515 -6.69087005,2.23029 -11.15145005,3.34544 -2.23029,1.11514 -5.57572,0 -7.80601,0 -4.46059,-1.11515 -8.92117,-2.23029 -13.38174,-2.23029 -2.23029,0 -4.46058,0 -5.57573,2.23029 -2.23029,2.23029 -1.11514,4.46057 -2.23029,6.69086 -1.11514,-5.57572 -3.34543,-12.26659 -4.46058,-17.84231 0,-7.80602 -2.23029,-15.61204 -1.11514,-22.30291 2.23029,3.34544 2.23029,6.69087 3.34543,10.03631 0,1.11514 1.11515,3.34543 3.34544,4.46058 3.34543,0 5.57572,-2.23029 6.69087,-4.46058 2.23028,-3.34544 5.57572,-7.80602 4.46057,-12.2666 0,-2.23029 -3.34543,-2.23029 -4.46057,-3.34543 -2.23029,-2.23029 -2.23029,-5.57572 -1.11515,-7.80601 4.46058,-4.46058 6.69087,-6.69088 10.0363,-7.80603 z m 172.847493,-10.0363 c 0,-1.11514 2.23029,-2.23029 4.46058,-2.23029 3.34544,0 6.69087,0 8.92116,0 -2.23029,2.23029 -5.57572,4.46058 -8.92116,5.57573 -3.34543,1.11514 -5.57573,-1.11515 -4.46058,-3.34544 z m 2.23029,-37.91493 c 2.23029,-1.11514 4.46058,-2.23029 6.69087,-3.34543 -1.11514,2.23029 -2.23029,5.57572 -5.57572,6.69087 -3.34544,1.11514 -3.34544,-2.23029 -1.11515,-3.34544 z M 39.696707,502.62933 c 3.34544,12.26659 7.80602,22.3029 21.18776,26.76348 13.38174,4.46058 31.22406,1.11514 45.720953,0 11.15145,0 22.3029,-2.23029 31.22406,3.34543 4.46058,3.34544 6.69087,6.69087 7.80601,11.15145 2.23029,4.46058 4.46059,7.80601 5.57573,12.26659 1.11515,3.34545 0,7.80602 -1.11514,11.15146 -3.34544,5.57572 -5.57573,10.0363 -5.57573,15.61203 -1.11515,5.57572 -2.23029,10.03631 -2.23029,15.61203 -1.11515,5.57573 -2.23029,11.15145 -4.46058,15.61203 -2.23029,4.46058 -6.69087,7.80601 -10.0363,12.26659 -5.57573,6.69088 -7.80602,14.49689 -10.03631,22.3029 -2.2303,5.57573 -3.34544,12.26661 -4.46059,18.95747 -1.11514,5.57573 -4.46057,10.03631 -10.0363,13.38174 -8.921163,4.46058 -18.957463,5.57573 -28.993773,8.92116 -8.92116,3.34543 -14.49688,8.92119 -21.18775,13.38179 -5.57573,4.4605 -10.03631,8.9211 -17.84233,10.0363 -14.49688,2.2302 -17.84231,-8.9212 -43.49065,0 -3.34544,1.1151 -6.69087,1.1151 -10.0363,0 -5.57574,-3.3455 -6.69088,-11.1515 -13.38175,-14.4969 -6.69087,-3.34546 -14.49688,-3.34546 -22.3029,-4.46061 -3.34544,0 -6.69087,-2.23029 -7.80602,-5.57572 -2.23029,-4.46058 -2.23029,-8.92116 -4.46058,-13.38174 -4.46058,-10.03631 -21.18775,-13.38174 -25.64833,-22.30291 -4.46058,-10.0363 1.11514,-14.49688 2.23028,-22.30289 0,-10.03631 -7.80601,-15.61204 -21.187747,-15.61204 7.80602,-11.15144 10.03631,-20.0726 13.381737,-31.22406 2.23029,-4.46058 2.23029,-8.92116 6.69087,-11.15145 3.34544,-2.23029 10.03631,-3.34543 14.49689,-4.46058 5.57572,-1.11514 12.26659,-1.11514 17.84232,1.11515 13.38174,6.69087 10.03631,25.64834 3.34543,33.45435 -8.92116,10.0363 -32.3392,8.92116 -28.99376,-7.80601 4.46058,4.46058 8.92116,10.0363 15.61202,3.34543 0,-1.11514 1.11515,-2.23029 1.11515,-2.23029 -1.11515,-3.34543 -3.34544,-5.57573 -6.69087,-6.69088 -2.23029,-1.11514 -4.46058,-1.11514 -5.57572,-1.11514 -6.69087,2.23029 -11.15146,5.57573 -13.38175,11.15146 -5.57572,10.0363 5.57573,18.95746 18.95747,16.72717 12.26659,-2.23029 17.84232,-7.80602 25.64834,-13.38174 0,13.38174 -1.11515,22.3029 1.11514,36.79979 2.23029,10.0363 4.46058,20.0726 8.92116,28.99377 4.46058,7.80601 11.15145,14.49688 21.18776,18.95746 10.0363,4.46058 21.18775,4.46058 32.33921,4.46058 18.95746,0 46.83609,-7.80601 62.44811,-15.61203 24.533203,-13.38173 27.878633,-23.41805 40.145233,-43.49065 5.57573,-8.92117 10.03631,-21.18776 13.38174,-31.22406 3.34543,-10.03632 6.69087,-21.18776 6.69087,-31.22407 0,-8.92115 -2.23029,-14.49689 -5.57573,-18.95747 -11.15144,-13.38173 -33.454353,-7.80601 -54.642113,-8.92115 -1.11514,3.34543 -3.34543,6.69086 0,10.0363 5.57574,5.57572 17.84233,4.46058 25.648343,5.57572 -35.684643,14.49689 -68.023853,-1.11514 -76.945003,-30.10891 7.80601,8.92116 20.0726,28.99377 37.91493,23.41804 6.69086,-2.23029 3.34543,-6.69086 1.11514,-10.0363 0,-1.11514 -3.34543,-1.11514 -4.46058,-2.23029 -17.84232,-8.92116 -23.41805,-23.41805 -21.18776,-36.79978 z m -114.85993,-6.69087 c 2.23028,2.23029 3.34543,4.46058 6.69086,6.69087 25.64834,18.95746 47.95124,18.95746 80.29044,20.0726 -28.99376,6.69088 -65.79355,2.2303 -85.86616,-16.72717 -3.34543,-2.23029 -4.46058,-5.57572 -6.69087,-7.80601 -2.23029,-4.46058 2.23029,-4.46058 5.57573,-2.23029 z m 120.43566,-5.57574 c 25.64833,-1.11514 52.41182,8.92117 61.332983,33.45436 -3.34544,-3.34544 -17.842323,-6.69087 -23.418043,-5.57573 -1.11515,0 -3.34545,1.11515 -3.34545,2.23029 -1.11514,2.23029 1.11515,4.46059 1.11515,5.57573 -14.49688,1.11515 -24.53319,-3.34544 -31.22406,-12.2666 3.34544,1.11515 6.69087,3.34544 10.03631,4.46058 6.69087,1.11515 14.49688,-1.11514 17.84231,-5.57572 2.23029,-2.23029 1.11515,-6.69087 -2.23029,-8.92116 -8.92115,-7.80601 -18.95746,-7.80601 -30.10891,-13.38175 z m 26.76348,-46.83609 c 3.34543,-2.23028 6.69087,-5.57572 10.03631,-7.80601 -14.49689,22.30291 -50.18153,40.14522 -78.06016,44.6058 -14.49688,3.34544 -44.6058,6.69087 -57.98754,-1.11514 -1.11515,-1.11515 -3.34544,-2.23029 -1.11515,-3.34544 2.2303,-1.11514 5.57573,-1.11514 7.80602,-1.11514 5.57573,0 11.15145,0 16.72717,0 13.38175,0 28.99378,-2.23029 42.37551,-4.46058 22.30291,-4.46058 43.49067,-13.38175 60.21784,-26.76349 z M -192.25346,363.23619 c 4.46059,-1.11514 8.92117,0 12.2666,1.11515 4.46058,2.23029 6.69087,5.57572 8.92116,8.92116 1.11514,2.23029 2.23029,3.34543 1.11514,5.57572 -1.11514,0 -2.23029,0 -3.34543,1.11515 -1.11515,1.11514 -1.11515,2.23029 -1.11515,3.34543 1.11515,6.69088 3.34544,12.2666 6.69087,17.84232 0,1.11515 1.11515,1.11515 2.23029,2.23029 1.11515,-6.69086 -1.11514,-13.38173 2.23029,-20.07261 0,-1.11514 1.11515,-2.23029 2.23029,-2.23029 2.23029,0 4.46058,2.23029 6.69088,1.11515 2.23029,-1.11515 2.23029,-3.34544 1.11514,-4.46058 -1.11514,-4.46058 -4.46058,-6.69087 -7.80602,-10.03631 5.57573,3.34544 11.15146,7.80602 14.49689,13.38174 1.11515,3.34543 1.11515,7.80601 -2.23029,10.03631 -1.11514,1.11515 -3.34543,1.11515 -5.57572,1.11515 -4.46059,4.46058 -3.34544,10.0363 -2.2303,14.49688 0,1.11514 1.11515,3.34543 3.34544,3.34543 4.46058,-1.11514 7.80602,-4.46058 11.15145,-5.57572 -8.92116,11.15145 -15.61203,16.72717 -22.3029,30.10892 0,-2.23029 1.11514,-5.57573 0,-7.80602 0,-1.11514 -2.23029,-2.23029 -3.34544,-3.34543 -4.46058,-2.2303 -8.92115,-3.34544 -13.38173,-5.57573 -4.46058,-2.23029 -6.69087,-6.69087 -10.03632,-10.03631 -2.23028,-2.23029 -5.57572,-1.11514 -7.80601,-3.34543 -1.11514,-2.23029 0,-4.46058 -1.11514,-6.69087 -1.11515,-3.34543 -1.11515,-7.80601 -4.46058,-10.03631 -3.34544,-2.23029 -8.92116,-2.23029 -13.38174,-2.23029 v 0 c 3.34543,-1.11515 6.69087,-2.23029 11.15145,-2.23029 6.69087,1.11514 11.15145,4.46058 14.49688,7.80602 2.23029,2.23029 2.23029,6.69087 4.46059,8.92116 1.11514,2.23029 4.46058,3.34543 6.69087,4.46058 2.23029,1.11514 5.57572,3.34543 7.80601,3.34543 1.11514,-3.34543 0,-6.69087 -2.23029,-8.92115 -4.46058,-4.46058 -5.57572,-10.03632 -6.69087,-15.61204 -1.11514,-3.34543 0,-7.80601 2.23029,-11.15145 1.11515,-2.23029 2.23029,-3.34543 1.11515,-5.57572 -3.34544,-2.23029 -8.92116,-2.23029 -13.38175,-3.34544 z m 161.696027,-62.44812 c 11.15146,7.80601 26.76349,16.72717 40.14523,23.41805 -3.34544,2.23029 -5.57573,5.57572 -10.03630995,5.57572 C -9.369673,327.55155 -27.211993,308.59408 -30.557433,300.78807 Z m 16.72718,-25.64834 v 0 c 17.84232,21.18776 35.68465,37.91493 61.33298,50.18153 6.69087,3.34544 13.38174,5.57573 22.3029,6.69087 4.46058,0 8.92116,-2.23029 13.38175,-2.23029 5.57572,0 11.15144,2.23029 14.49688,4.46058 1.11514,1.11515 2.23029,2.23029 2.23029,3.34544 1.115143,5.57572 2.230293,11.15144 7.806013,14.49688 3.34544,2.23029 7.80601,2.23029 11.15146,1.11514 1.11514,3.34545 2.23029,5.57573 6.69087,6.69088 3.34543,1.11514 6.69086,-3.34543 10.0363,-2.23029 1.11514,2.23029 2.23029,4.46058 4.46058,5.57572 1.11514,1.11515 4.46058,2.23029 5.57572,3.34544 6.69088,3.34543 11.15146,10.0363 13.38175,15.61203 -3.34544,-4.46058 -7.80602,-8.92116 -14.49689,-11.15145 0,8.92116 0,21.18776 -6.69087,25.64834 0,-5.57573 0,-11.15146 -3.34544,-16.72718 -5.57572,3.34543 -10.0363,8.92115 -16.72717,10.03631 2.23029,-3.34545 7.80602,-6.69088 5.57573,-11.15146 -3.34544,-2.23029 -6.69087,-2.23029 -11.15146,-1.11514 -5.57572,1.11514 -11.15145,4.46058 -15.612033,7.80601 -1.11514,-3.34543 -2.23029,-5.57572 -3.34543,-8.92116 -3.34544,0 -14.49689,4.46058 -11.15145,10.0363 4.46058,6.69088 13.38174,3.34545 17.84232,4.46059 3.345433,1.11515 5.575723,3.34544 6.690873,6.69087 0,-2.23029 0,-4.46058 1.11514,-6.69087 5.57572,5.57573 10.03631,12.26659 13.38175,18.95746 5.57572,-2.23029 6.69087,-5.57572 7.80601,-12.26659 2.23029,3.34543 2.23029,6.69087 2.23029,11.15145 2.23029,-1.11515 2.23029,-2.23029 3.34543,-4.46058 2.23029,10.0363 0,25.64834 -14.49688,30.10892 2.23029,-6.69087 3.34544,-12.2666 -5.57573,-12.2666 -6.69087,0 -15.612033,2.23029 -22.302903,3.34544 2.23029,-1.11515 14.496893,-7.80602 12.266603,-12.2666 -1.11515,-1.11515 -2.23029,-2.23029 -4.460583,-2.23029 -4.46058,-1.11515 -8.92116,-3.34544 -13.38174,-4.46058 -2.23029,0 -4.46058,1.11514 -6.69088,2.23029 -12.26659,-5.57573 -15.61202,1.11514 -24.53318,2.23029 -7.80602,1.11514 -16.72718,-3.34544 -21.18776,-10.03631 -8.92116,-14.49689 4.46058,-23.41804 16.72718,-26.76348 -15.61204,-2.23029 -22.30291,3.34544 -25.64834,18.95747 -7.80601,-2.23029 -11.15145,-2.23029 -20.07261,-4.46059 -52.41182,-7.80601 -93.67219,7.80603 -117.090227,33.45436 -23.41805,24.53319 -37.91493,62.44812 -36.79979,93.67218 -1.11514,33.45435 10.03631,53.52697 26.76348,82.52074 -25.64833,-21.18776 -36.79979,-46.8361 -43.49066,-64.67841 -3.34543,3.34543 -2.23029,7.80601 -3.34543,12.26659 -14.49688,-20.07261 5.57572,-70.25414 15.61203,-92.55704 -7.80602,3.34543 -12.2666,10.03631 -17.84232,15.61203 -1.11515,-28.99377 24.53319,-56.8724 50.18153,-80.29045 -7.80602,1.11516 -13.38174,4.46059 -21.18776,7.80603 24.5332,-25.64834 70.254137,-41.26037 110.399357,-42.37552 -10.0363,-3.34544 -21.18775,-3.34544 -31.22406,-5.57573 31.22406,-6.69087 53.52696,-6.69087 74.71471,-21.18775 10.03632,6.69087 21.18776,13.38174 27.87863,11.15145 -15.61202,-12.26659 -46.83609,-41.26036 -53.52696,-63.56327 z m 94.78733,68.02385 c 2.2303,2.23029 4.46059,4.46058 6.69087,7.80601 2.23029,2.23029 6.69087,4.46059 11.15145,3.34544 -1.11514,-2.23029 -1.11514,-4.46058 -3.34543,-6.69087 -1.11515,-1.11515 -2.23029,-1.11515 -3.34544,-1.11515 -4.46058,-1.11514 -7.80601,-2.23029 -11.15145,-3.34543 z"
       id="path16"
       inkscape:connector-curvature="0"
       style="clip-rule:evenodd;fill:#ffffff;fill-rule:evenodd;stroke-width:11.15145016"
       inkscape:export-filename="G:\Users\suitedoalex\sites\msi-logo-5.png"
       inkscape:export-xdpi="415.78848"
       inkscape:export-ydpi="415.78848" /></g></svg>